<?xml version="1.0" encoding="utf-8"?>
<!-- Generator: Adobe Illustrator 24.3.0, SVG Export Plug-In . SVG Version: 6.00 Build 0)  -->
<svg version="1.1" id="Layer_1" xmlns="http://www.w3.org/2000/svg" xmlns:xlink="http://www.w3.org/1999/xlink" x="0px" y="0px"
	 viewBox="0 0 92.8 46.1" style="enable-background:new 0 0 92.8 46.1;" xml:space="preserve">
<style type="text/css">
	.st0{fill:#22C55E;}
</style>
<path class="st0" d="M46.1,2.9l5.5,9.5l5.5-9.5H46.1z"/>
<path class="st0" d="M76,20l-6.5,11.2l-1-1.7l12-20.6h2L77,18.4h6.9l9-15.5c0,0-11.5,0-13.4,0c-2.4,0-3.9,2.3-3.9,2.3
	S62.9,27.1,62.8,27.1c-0.7,1.3-0.7,3.5,0,4.7c0,0,6.6,11.4,6.6,11.4L82.9,20L76,20L76,20z"/>
<path class="st0" d="M58,16.7h9l3.5-6.1h-9l1-1.7h9l3.5-6c0,0-10.9,0-13.2,0c-2.5,0-4,2.3-4,2.3L52.6,14l3.5,6L58,16.7z"/>
<path class="st0" d="M15.9,27.6h-1.5v1.9h1.5c0.1,0,0.2,0,0.3-0.1c0.1-0.1,0.1-0.2,0.1-0.4v-0.9c0-0.2,0-0.3-0.1-0.4
	C16.2,27.6,16,27.6,15.9,27.6z"/>
<path class="st0" d="M26.6,27.6h-1.4v1.8h1.4c0.1,0,0.2,0,0.3-0.1C27,29.1,27,29,27,28.8v-0.8c0-0.1,0-0.3-0.1-0.4
	C26.8,27.6,26.7,27.6,26.6,27.6z"/>
<path class="st0" d="M21.2,27.6h-1.1c-0.1,0-0.2,0-0.3,0.1c-0.1,0.1-0.1,0.2-0.1,0.4v3.2c0,0.1,0,0.3,0.1,0.4
	c0.1,0.1,0.2,0.2,0.3,0.2h1.1c0.1,0,0.2-0.1,0.3-0.2c0.1-0.1,0.1-0.2,0.1-0.4v-3.2c0-0.1,0-0.3-0.1-0.4
	C21.4,27.6,21.3,27.6,21.2,27.6z"/>
<path class="st0" d="M23,0C10.3,0,0,10.3,0,23s10.3,23,23,23c12.7,0,23-10.3,23-23S35.8,0,23,0z M14.4,10.7h11.8l-1.8,2.9l-11.8,0
	L14.4,10.7z M12,31.5c0,0.4-0.1,0.7-0.4,0.9c-0.3,0.3-0.6,0.4-0.9,0.4H9.1c-0.4,0-0.7-0.1-0.9-0.4c-0.3-0.2-0.4-0.6-0.4-0.9v-0.6h1
	l0.1,0.6c0.1,0.2,0.2,0.4,0.5,0.4h1.1c0.1,0,0.2,0,0.3-0.1c0.1-0.1,0.1-0.2,0.1-0.4v-0.7c0-0.3-0.1-0.5-0.4-0.5H9.2
	c-0.4,0-0.7-0.1-0.9-0.4c-0.3-0.3-0.4-0.6-0.4-0.9v-0.9c0-0.4,0.1-0.7,0.4-0.9c0.3-0.3,0.6-0.4,0.9-0.4h1.5c0.4,0,0.7,0.1,0.9,0.4
	c0.3,0.3,0.4,0.6,0.4,0.9v0.6h-1l-0.1-0.5c-0.1-0.2-0.2-0.4-0.5-0.4h-1c-0.1,0-0.2,0-0.3,0.1c-0.1,0.1-0.1,0.2-0.1,0.4v0.5
	c0,0.3,0.1,0.5,0.4,0.5h1.3c0.4,0,0.7,0.1,0.9,0.4c0.3,0.3,0.4,0.6,0.4,0.9V31.5z M17.5,29.2c0,0.4-0.1,0.7-0.4,0.9
	c-0.3,0.3-0.6,0.4-0.9,0.4h-1.7v2.3h-1.1v-6.2h2.8c0.4,0,0.7,0.1,0.9,0.4c0.3,0.3,0.4,0.6,0.4,0.9V29.2z M22.7,31.4
	c0,0.4-0.1,0.7-0.4,0.9c-0.3,0.3-0.6,0.4-0.9,0.4h-1.5c-0.4,0-0.7-0.1-0.9-0.4c-0.3-0.3-0.4-0.6-0.4-0.9v-3.6c0-0.4,0.1-0.7,0.4-0.9
	c0.3-0.3,0.6-0.4,0.9-0.4h1.5c0.4,0,0.7,0.1,0.9,0.4c0.3,0.3,0.4,0.6,0.4,0.9V31.4z M23,25.1l-15,0l3.6-5.8H9l1.8-2.9H22l-1.8,2.9
	h-5l-1.8,2.9h8.1l7.4-11.6l9.2,14.5h-3.5l-1.8-2.9h-5.4l1.8-2.9h1.8L28.7,16L23,25.1z M27.2,32.8l-1-2.4h-1v2.4h-1.1v-6.2h2.8
	c0.4,0,0.7,0.1,0.9,0.4c0.3,0.3,0.4,0.6,0.4,0.9V29c0,0.3-0.1,0.5-0.2,0.8c-0.2,0.2-0.4,0.4-0.6,0.5l1.1,2.6H27.2z M33.1,27.6h-1.6
	v5.2h-1.1v-5.2h-1.6v-1h4.3L33.1,27.6L33.1,27.6z M38.1,31.5c0,0.4-0.1,0.7-0.4,0.9c-0.3,0.3-0.6,0.4-0.9,0.4h-1.6
	c-0.4,0-0.7-0.1-0.9-0.4c-0.2-0.2-0.4-0.6-0.4-0.9v-0.6h1l0.1,0.6c0.1,0.2,0.2,0.4,0.5,0.4h1.1c0.1,0,0.2,0,0.3-0.1
	c0.1-0.1,0.1-0.2,0.1-0.4v-0.7c0-0.3-0.1-0.5-0.4-0.5h-1.3c-0.4,0-0.7-0.1-0.9-0.4c-0.3-0.3-0.4-0.6-0.4-0.9v-0.9
	c0-0.4,0.1-0.7,0.4-0.9c0.3-0.3,0.6-0.4,0.9-0.4h1.5c0.4,0,0.7,0.1,0.9,0.4c0.3,0.3,0.4,0.6,0.4,0.9v0.6h-1L37,27.9
	c-0.1-0.2-0.2-0.4-0.5-0.4h-1c-0.1,0-0.2,0-0.3,0.1c-0.1,0.1-0.1,0.2-0.1,0.4v0.5c0,0.3,0.2,0.5,0.4,0.5h1.3c0.4,0,0.7,0.1,0.9,0.4
	c0.3,0.3,0.4,0.6,0.4,0.9V31.5z M38.8,26.9h-0.2v0.5h-0.1v-0.5h-0.2v-0.1h0.6V26.9z M39.5,27.4V27c0,0,0,0,0-0.1c0,0,0,0,0,0.1
	l-0.2,0.3h0L39.1,27c0,0,0,0,0-0.1c0,0,0,0,0,0.1v0.4h-0.1v-0.6H39l0.2,0.4l0.2-0.4h0.1v0.6L39.5,27.4L39.5,27.4z"/>
</svg>
